<?xml version="1.0" encoding="iso-8859-1"?>
<!-- Generator: Adobe Illustrator 18.1.1, SVG Export Plug-In . SVG Version: 6.00 Build 0)  -->
<svg version="1.1" id="Capa_1" xmlns="http://www.w3.org/2000/svg" xmlns:xlink="http://www.w3.org/1999/xlink" x="0px" y="0px"
	 viewBox="0 0 495.401 495.401" style="enable-background:new 0 0 495.401 495.401;" xml:space="preserve">
<g>
	<g>
		<path style="fill:#010002;" d="M185.049,381.529c-22.852,0-41.379,18.517-41.379,41.36c0,22.861,18.527,41.379,41.379,41.379
			c22.843,0,41.37-18.518,41.37-41.379C226.419,400.048,207.892,381.529,185.049,381.529z"/>
		<path style="fill:#010002;" d="M365.622,381.529c-22.861,0-41.379,18.517-41.379,41.36c0,22.861,18.518,41.379,41.379,41.379
			c22.844,0,41.38-18.518,41.38-41.379C407.002,400.048,388.466,381.529,365.622,381.529z"/>
		<path style="fill:#010002;" d="M469.558,154.735l-229.192-0.019c-11.46,0-20.75,9.29-20.75,20.75s9.29,20.75,20.75,20.75
			l202.778-0.01l-12.864,43.533l-206.164,0.044c-10.631,0-19.25,8.619-19.25,19.25c0,10.632,8.619,19.25,19.25,19.25l194.768,0.076
			l-12.093,40.715H174.455L159.04,196.188L144.321,76.471c-1.198-9.473-8.066-17.251-17.319-19.611l-98-25
			C16.56,28.684,3.901,36.199,0.727,48.641s4.339,25.102,16.781,28.275l82.667,21.089l32.192,241.591c0,0,1.095,28.183,26.69,28.183
			h256.81c21.518,0,25.678-22.438,25.678-22.438l50.896-151.159C492.441,194.162,507.532,154.735,469.558,154.735z"/>
	</g>
</g>
<g>
</g>
<g>
</g>
<g>
</g>
<g>
</g>
<g>
</g>
<g>
</g>
<g>
</g>
<g>
</g>
<g>
</g>
<g>
</g>
<g>
</g>
<g>
</g>
<g>
</g>
<g>
</g>
<g>
</g>
</svg>
