<?xml version="1.0"?>
<svg xmlns="http://www.w3.org/2000/svg" id="Capa_1" enable-background="new 0 0 512 512" height="512px" viewBox="0 0 512 512" width="512px"><g><g><path d="m437 351c6.457 0 12.188-4.131 14.23-10.256l60-180c1.524-4.575.757-9.603-2.062-13.514-2.819-3.912-7.346-6.23-12.168-6.23h-377.293l-10.4-62.398c-3.631-21.788-22.299-37.602-44.388-37.602h-49.919c-8.284 0-15 6.716-15 15s6.716 15 15 15h49.919c7.363 0 13.585 5.271 14.796 12.534l42.285 253.707v28.759c0 17.49 10.036 32.67 24.646 40.114-2.969 6.001-4.646 12.75-4.646 19.886 0 24.813 20.187 45 45 45s45-20.187 45-45c0-5.258-.915-10.305-2.58-15h115.16c-1.665 4.695-2.58 9.742-2.58 15 0 24.813 20.187 45 45 45s45-20.187 45-45c0-5.258-.915-10.305-2.58-15h7.58c8.284 0 15-6.716 15-15s-6.716-15-15-15h-270c-8.271 0-15-6.729-15-15v-15zm-90-90h-45v-30h45zm30-30h79.188l-10 30h-69.188zm-75 60h45v30h-45zm-30 30h-45v-30h45zm30-120v-30h45v30zm-30 0h-45v-30h45zm0 30v30h-45v-30zm-75 30h-57.293l-5-30h62.293zm-47.293 60-5-30h52.293v30zm227.293 0v-30h59.188l-10 30zm89.188-120h-89.188v-30h99.188zm-269.188-30v30h-67.293l-5-30zm5 255c0 8.271-6.729 15-15 15s-15-6.729-15-15 6.729-15 15-15 15 6.729 15 15zm200 0c0 8.271-6.729 15-15 15s-15-6.729-15-15 6.729-15 15-15 15 6.729 15 15z" data-original="#000000" class="active-path" data-old_color="#000000" fill="#FFFFFF"/></g></g> </svg>
